<svg width="23" height="26" viewBox="0 0 23 26" fill="none" xmlns="http://www.w3.org/2000/svg">
<path d="M21.8314 11.3244C21.8314 16.1618 14.3623 22.8472 12.0971 24.7635C11.7244 25.0788 11.1827 25.0788 10.81 24.7635C8.54472 22.8472 1.07568 16.1618 1.07568 11.3244C1.07568 5.62241 5.722 1 11.4535 1C17.185 1 21.8314 5.62241 21.8314 11.3244Z" stroke="#4E3525" stroke-width="2"/>
<path d="M14.9128 9.67723C14.9128 11.5941 13.364 13.1481 11.4535 13.1481C9.54301 13.1481 7.99424 11.5941 7.99424 9.67723C7.99424 7.76031 9.54301 6.20634 11.4535 6.20634C13.364 6.20634 14.9128 7.76031 14.9128 9.67723Z" stroke="#4E3525" stroke-width="2"/>
</svg>
