<svg width="24" height="26" viewBox="0 0 24 26" fill="none" xmlns="http://www.w3.org/2000/svg">
<path d="M12.8967 7.83761C12.8967 7.28532 12.449 6.83761 11.8967 6.83761C11.3444 6.83761 10.8967 7.28532 10.8967 7.83761H12.8967ZM12.5259 14.826L13.1424 14.0387L12.5259 14.826ZM15.4712 18.4027C15.906 18.7432 16.5346 18.6668 16.8751 18.2319C17.2156 17.7971 17.1391 17.1686 16.7043 16.8281L15.4712 18.4027ZM17.8515 0.137726C17.3753 -0.141974 16.7625 0.0173375 16.4828 0.493558C16.2031 0.969779 16.3624 1.58257 16.8386 1.86227L17.8515 0.137726ZM21.379 4.52894C21.8552 4.80864 22.468 4.64933 22.7477 4.17311C23.0274 3.69689 22.8681 3.08409 22.3918 2.80439L21.379 4.52894ZM6.9548 1.86227C7.43103 1.58257 7.59034 0.969779 7.31064 0.493558C7.03094 0.0173375 6.41814 -0.141974 5.94192 0.137726L6.9548 1.86227ZM1.40162 2.80439C0.925398 3.08409 0.766086 3.69689 1.04579 4.17311C1.32549 4.64933 1.93828 4.80864 2.4145 4.52894L1.40162 2.80439ZM21.7935 14.3333C21.7935 19.6521 17.3828 24 11.8967 24V26C18.4469 26 23.7935 20.7967 23.7935 14.3333H21.7935ZM11.8967 24C6.41069 24 2 19.6521 2 14.3333H0C0 20.7967 5.34657 26 11.8967 26V24ZM2 14.3333C2 9.01459 6.41069 4.66667 11.8967 4.66667V2.66667C5.34657 2.66667 0 7.87 0 14.3333H2ZM11.8967 4.66667C17.3828 4.66667 21.7935 9.01459 21.7935 14.3333H23.7935C23.7935 7.87 18.4469 2.66667 11.8967 2.66667V4.66667ZM12.8967 13.5446V7.83761H10.8967V13.5446H12.8967ZM11.9093 15.6134L15.4712 18.4027L16.7043 16.8281L13.1424 14.0387L11.9093 15.6134ZM10.8967 13.5446C10.8967 14.3553 11.2734 15.1153 11.9093 15.6134L13.1424 14.0387C12.9831 13.9139 12.8967 13.731 12.8967 13.5446H10.8967ZM16.8386 1.86227L21.379 4.52894L22.3918 2.80439L17.8515 0.137726L16.8386 1.86227ZM5.94192 0.137726L1.40162 2.80439L2.4145 4.52894L6.9548 1.86227L5.94192 0.137726Z" fill="#4E3525"/>
</svg>
